<svg width="14" height="10" viewBox="0 0 14 10" fill="none" xmlns="http://www.w3.org/2000/svg">
<path d="M12.9863 1.34405L13.0029 1.45251C12.8425 0.883128 12.4092 0.443781 11.8586 0.283868L11.847 0.281101C10.8117 7.58568e-06 6.6457 7.64709e-06 6.6457 7.64709e-06C6.6457 7.64709e-06 2.49016 -0.00552574 1.44436 0.281101C0.883283 0.443781 0.449469 0.883128 0.291769 1.44089L0.289003 1.45251C-0.0977772 3.47273 -0.100544 5.9002 0.306156 8.06318L0.289003 7.95362C0.449469 8.523 0.882729 8.96235 1.4333 9.12226L1.44492 9.12503C2.4791 9.40667 6.64625 9.40667 6.64625 9.40667C6.64625 9.40667 10.8012 9.40667 11.8476 9.12503C12.4092 8.96235 12.843 8.523 13.0007 7.96524L13.0035 7.95362C13.1795 7.01406 13.2802 5.93285 13.2802 4.82839C13.2802 4.788 13.2802 4.74705 13.2796 4.70611C13.2802 4.66848 13.2802 4.62366 13.2802 4.57884C13.2802 3.47383 13.1795 2.39262 12.9863 1.34405ZM5.31659 6.72356V2.6881L8.78378 4.70887L5.31659 6.72356Z" fill="white"/>
</svg>
